<svg width="296" height="104" viewBox="0 0 296 104" fill="none" xmlns="http://www.w3.org/2000/svg">
<path d="M85.9656 31V30.7683C86.1201 30.7683 86.3132 30.7425 86.5449 30.691C86.7766 30.6395 86.9955 30.5494 87.2015 30.4207C87.4332 30.2919 87.6135 30.0988 87.7422 29.8413C87.8967 29.5838 87.9739 29.262 87.9739 28.8758V6.08847C87.9739 5.70224 87.8967 5.38039 87.7422 5.1229C87.6135 4.86542 87.4332 4.67231 87.2015 4.54356C86.9955 4.41482 86.7766 4.3247 86.5449 4.27321C86.3132 4.22171 86.1201 4.19596 85.9656 4.19596V3.96423H92.6086V4.19596C92.4541 4.19596 92.261 4.22171 92.0293 4.27321C91.7976 4.3247 91.5658 4.41482 91.3341 4.54356C91.1281 4.67231 90.9479 4.86542 90.7934 5.1229C90.6646 5.38039 90.6003 5.70224 90.6003 6.08847V30.5365H103.191C103.655 30.5365 104.144 30.3692 104.659 30.0344C105.2 29.674 105.702 29.2491 106.165 28.7599C106.654 28.2707 107.079 27.7428 107.44 27.1764C107.826 26.6099 108.096 26.1207 108.251 25.7087H108.483L107.401 31H85.9656ZM127.989 28.8758C127.989 29.262 128.053 29.5838 128.182 29.8413C128.336 30.0988 128.517 30.2919 128.723 30.4207C128.954 30.5494 129.186 30.6395 129.418 30.691C129.649 30.7425 129.843 30.7683 129.997 30.7683V31H125.362V25.9791C125.105 26.6485 124.783 27.318 124.397 27.9874C124.011 28.6569 123.534 29.262 122.968 29.8027C122.401 30.3177 121.732 30.7425 120.959 31.0772C120.213 31.412 119.337 31.5793 118.333 31.5793C117.741 31.5793 117.071 31.4763 116.325 31.2704C115.604 31.0901 114.909 30.7554 114.239 30.2662C113.595 29.777 113.042 29.1204 112.578 28.2964C112.141 27.4467 111.922 26.3653 111.922 25.0521V14.6627C111.922 14.2764 111.844 13.9803 111.69 13.7744C111.561 13.5426 111.381 13.3881 111.149 13.3109C110.943 13.2079 110.724 13.1435 110.493 13.1178C110.261 13.092 110.068 13.0791 109.913 13.0791V12.8474C110.248 12.8474 110.621 12.8345 111.033 12.8088C111.445 12.7573 111.857 12.6929 112.269 12.6157C112.681 12.5384 113.068 12.4226 113.428 12.2681C113.788 12.1136 114.085 11.9205 114.316 11.6887H114.548V25.0521C114.548 26.0821 114.651 26.9575 114.857 27.6785C115.063 28.3737 115.346 28.9401 115.707 29.3779C116.067 29.8156 116.492 30.1374 116.981 30.3434C117.47 30.5237 117.998 30.6138 118.565 30.6138C119.62 30.6138 120.522 30.4207 121.268 30.0344C122.041 29.6482 122.697 29.159 123.238 28.5668C123.779 27.9746 124.217 27.318 124.551 26.597C124.912 25.8761 125.182 25.1937 125.362 24.55V14.6627C125.362 14.2764 125.285 13.9803 125.131 13.7744C125.002 13.5426 124.822 13.3881 124.59 13.3109C124.384 13.2079 124.165 13.1435 123.933 13.1178C123.702 13.092 123.508 13.0791 123.354 13.0791V12.8474C123.689 12.8474 124.062 12.8345 124.474 12.8088C124.886 12.7573 125.298 12.6929 125.71 12.6157C126.122 12.5384 126.508 12.4226 126.869 12.2681C127.229 12.1136 127.525 11.9205 127.757 11.6887H127.989V28.8758ZM141.917 31.5793C140.552 31.5793 139.239 31.3347 137.977 30.8455C136.741 30.3563 135.647 29.6611 134.694 28.7599C133.767 27.8587 133.021 26.7901 132.454 25.5542C131.888 24.2926 131.604 22.8893 131.604 21.3444C131.604 19.7995 131.888 18.4091 132.454 17.1731C133.021 15.9115 133.767 14.83 134.694 13.9288C135.647 13.0276 136.741 12.3324 137.977 11.8432C139.239 11.354 140.552 11.1094 141.917 11.1094C143.359 11.1094 144.736 11.354 146.049 11.8432C147.388 12.3067 148.457 13.0276 149.255 14.0061L149.603 17.289H149.371C148.341 15.3064 147.259 13.8645 146.126 12.9633C144.994 12.0621 143.59 11.6115 141.917 11.6115C140.835 11.6115 139.831 11.8432 138.904 12.3067C137.977 12.7444 137.166 13.3881 136.471 14.2378C135.801 15.0875 135.274 16.1175 134.887 17.3276C134.501 18.512 134.308 19.851 134.308 21.3444C134.308 22.8378 134.501 24.1896 134.887 25.3997C135.274 26.5842 135.801 27.6012 136.471 28.4509C137.166 29.3006 137.977 29.9572 138.904 30.4207C139.831 30.8584 140.835 31.0772 141.917 31.0772C143.59 31.0772 144.994 30.6266 146.126 29.7255C147.259 28.8243 148.341 27.3824 149.371 25.3997H149.603L149.255 28.6826C148.457 29.6611 147.388 30.3949 146.049 30.8841C144.736 31.3476 143.359 31.5793 141.917 31.5793ZM152.792 5.08428C152.792 4.64656 152.946 4.26033 153.255 3.9256C153.564 3.56513 153.976 3.38489 154.491 3.38489C155.006 3.38489 155.418 3.56513 155.727 3.9256C156.036 4.26033 156.191 4.64656 156.191 5.08428C156.191 5.522 156.036 5.93397 155.727 6.3202C155.418 6.68068 155.006 6.86092 154.491 6.86092C153.976 6.86092 153.564 6.68068 153.255 6.3202C152.946 5.93397 152.792 5.522 152.792 5.08428ZM156.191 28.8758C156.191 29.262 156.255 29.5838 156.384 29.8413C156.538 30.0988 156.719 30.2919 156.925 30.4207C157.156 30.5494 157.388 30.6395 157.62 30.691C157.851 30.7425 158.045 30.7683 158.199 30.7683V31H151.556V30.7683C151.71 30.7683 151.904 30.7425 152.135 30.691C152.367 30.6395 152.586 30.5494 152.792 30.4207C153.024 30.2919 153.204 30.0988 153.333 29.8413C153.487 29.5838 153.564 29.262 153.564 28.8758V14.6627C153.564 14.2764 153.487 13.9803 153.333 13.7744C153.204 13.5426 153.024 13.3881 152.792 13.3109C152.586 13.2079 152.367 13.1435 152.135 13.1178C151.904 13.092 151.71 13.0791 151.556 13.0791V12.8474C151.891 12.8474 152.264 12.8345 152.676 12.8088C153.088 12.7573 153.5 12.6929 153.912 12.6157C154.324 12.5384 154.71 12.4226 155.071 12.2681C155.431 12.1136 155.727 11.9205 155.959 11.6887H156.191V28.8758ZM173.945 17.6366C173.945 16.3749 173.764 15.3579 173.404 14.5854C173.069 13.7872 172.644 13.1693 172.129 12.7315C171.614 12.2681 171.035 11.9591 170.391 11.8046C169.773 11.6501 169.194 11.5729 168.653 11.5729C167.701 11.5729 166.967 11.7145 166.452 11.9977C165.937 12.2552 165.551 12.5899 165.293 13.0019C165.036 13.4139 164.843 13.8645 164.714 14.3537C164.611 14.8172 164.495 15.2549 164.366 15.6669C164.238 16.0788 164.057 16.4264 163.826 16.7097C163.594 16.9671 163.208 17.0959 162.667 17.0959C162.332 17.0959 161.997 16.9929 161.663 16.7869C161.328 16.5809 161.161 16.1818 161.161 15.5896C161.161 15.2034 161.264 14.7528 161.47 14.2378C161.701 13.7229 162.1 13.2336 162.667 12.7702C163.233 12.3067 163.993 11.9205 164.946 11.6115C165.924 11.2768 167.16 11.1094 168.653 11.1094C169.452 11.1094 170.314 11.2124 171.241 11.4184C172.168 11.5986 173.018 11.9333 173.79 12.4226C174.588 12.9118 175.245 13.5812 175.76 14.4309C176.301 15.2549 176.571 16.3234 176.571 17.6366V28.8758C176.571 29.0817 176.635 29.2362 176.764 29.3392C176.919 29.4422 177.099 29.5195 177.305 29.571C177.537 29.5967 177.768 29.6096 178 29.6096C178.232 29.6096 178.425 29.6096 178.579 29.6096V29.8413L174.176 31H173.945V25.7473C173.713 26.4683 173.378 27.1892 172.94 27.9102C172.529 28.6054 172.026 29.2234 171.434 29.7641C170.842 30.3048 170.16 30.7425 169.387 31.0772C168.615 31.412 167.765 31.5793 166.838 31.5793C165.731 31.5793 164.74 31.412 163.864 31.0772C163.014 30.7683 162.294 30.3563 161.701 29.8413C161.135 29.3006 160.697 28.6955 160.388 28.0261C160.105 27.3566 159.963 26.6614 159.963 25.9404C159.963 24.4985 160.401 23.2626 161.276 22.2327C162.152 21.177 163.259 20.3144 164.598 19.645C165.963 18.9498 167.469 18.4477 169.117 18.1387C170.791 17.804 172.4 17.6366 173.945 17.6366ZM173.945 18.1001C172.323 18.1001 170.816 18.2932 169.426 18.6794C168.061 19.0656 166.877 19.6064 165.873 20.3016C164.868 20.9968 164.083 21.8465 163.517 22.8506C162.95 23.8291 162.667 24.9363 162.667 26.1722C162.667 27.0991 162.796 27.8716 163.053 28.4895C163.336 29.0817 163.671 29.5581 164.057 29.9186C164.469 30.279 164.92 30.5365 165.409 30.691C165.898 30.8198 166.375 30.8841 166.838 30.8841C168.048 30.8841 169.091 30.6266 169.967 30.1117C170.868 29.5967 171.614 28.953 172.207 28.1806C172.799 27.3824 173.237 26.5198 173.52 25.5928C173.803 24.6659 173.945 23.7905 173.945 22.9665V18.1001ZM184.931 28.8758C184.931 29.262 184.996 29.5838 185.124 29.8413C185.279 30.0988 185.459 30.2919 185.665 30.4207C185.897 30.5494 186.129 30.6395 186.36 30.691C186.592 30.7425 186.785 30.7683 186.94 30.7683V31H180.297V30.7683C180.451 30.7683 180.644 30.7425 180.876 30.691C181.108 30.6395 181.327 30.5494 181.532 30.4207C181.764 30.2919 181.944 30.0988 182.073 29.8413C182.228 29.5838 182.305 29.262 182.305 28.8758V14.6627C182.305 14.2764 182.228 13.9803 182.073 13.7744C181.944 13.5426 181.764 13.3881 181.532 13.3109C181.327 13.2079 181.108 13.1435 180.876 13.1178C180.644 13.092 180.451 13.0791 180.297 13.0791V12.8474C180.631 12.8474 181.005 12.8345 181.417 12.8088C181.829 12.7573 182.241 12.6929 182.653 12.6157C183.065 12.5384 183.451 12.4226 183.811 12.2681C184.172 12.1136 184.468 11.9205 184.7 11.6887H184.931V16.7869C185.215 16.1175 185.562 15.448 185.974 14.7785C186.412 14.1091 186.914 13.504 187.48 12.9633C188.073 12.4226 188.742 11.9848 189.489 11.6501C190.235 11.2896 191.059 11.1094 191.961 11.1094C192.553 11.1094 193.209 11.2124 193.93 11.4184C194.677 11.5986 195.372 11.9333 196.016 12.4226C196.685 12.9118 197.239 13.5812 197.677 14.4309C198.14 15.2549 198.372 16.3234 198.372 17.6366V28.8758C198.372 29.262 198.436 29.5838 198.565 29.8413C198.72 30.0988 198.9 30.2919 199.106 30.4207C199.337 30.5494 199.569 30.6395 199.801 30.691C200.033 30.7425 200.226 30.7683 200.38 30.7683V31H193.737V30.7683C193.892 30.7683 194.085 30.7425 194.317 30.691C194.548 30.6395 194.767 30.5494 194.973 30.4207C195.205 30.2919 195.385 30.0988 195.514 29.8413C195.668 29.5838 195.746 29.262 195.746 28.8758V17.6366C195.746 16.3749 195.604 15.3836 195.321 14.6627C195.063 13.916 194.729 13.3495 194.317 12.9633C193.93 12.5771 193.505 12.3324 193.042 12.2294C192.579 12.1265 192.141 12.075 191.729 12.075C190.776 12.075 189.914 12.2681 189.141 12.6543C188.394 13.0405 187.738 13.5297 187.171 14.122C186.605 14.7142 186.141 15.3707 185.781 16.0917C185.42 16.7869 185.137 17.4692 184.931 18.1387V28.8758ZM215.849 17.6366C215.849 16.3749 215.668 15.3579 215.308 14.5854C214.973 13.7872 214.548 13.1693 214.033 12.7315C213.518 12.2681 212.939 11.9591 212.295 11.8046C211.677 11.6501 211.098 11.5729 210.557 11.5729C209.605 11.5729 208.871 11.7145 208.356 11.9977C207.841 12.2552 207.455 12.5899 207.197 13.0019C206.94 13.4139 206.747 13.8645 206.618 14.3537C206.515 14.8172 206.399 15.2549 206.27 15.6669C206.141 16.0788 205.961 16.4264 205.73 16.7097C205.498 16.9671 205.112 17.0959 204.571 17.0959C204.236 17.0959 203.901 16.9929 203.567 16.7869C203.232 16.5809 203.065 16.1818 203.065 15.5896C203.065 15.2034 203.168 14.7528 203.374 14.2378C203.605 13.7229 204.004 13.2336 204.571 12.7702C205.137 12.3067 205.897 11.9205 206.85 11.6115C207.828 11.2768 209.064 11.1094 210.557 11.1094C211.356 11.1094 212.218 11.2124 213.145 11.4184C214.072 11.5986 214.922 11.9333 215.694 12.4226C216.492 12.9118 217.149 13.5812 217.664 14.4309C218.205 15.2549 218.475 16.3234 218.475 17.6366V28.8758C218.475 29.0817 218.539 29.2362 218.668 29.3392C218.823 29.4422 219.003 29.5195 219.209 29.571C219.441 29.5967 219.672 29.6096 219.904 29.6096C220.136 29.6096 220.329 29.6096 220.483 29.6096V29.8413L216.08 31H215.849V25.7473C215.617 26.4683 215.282 27.1892 214.844 27.9102C214.432 28.6054 213.93 29.2234 213.338 29.7641C212.746 30.3048 212.064 30.7425 211.291 31.0772C210.519 31.412 209.669 31.5793 208.742 31.5793C207.635 31.5793 206.644 31.412 205.768 31.0772C204.918 30.7683 204.197 30.3563 203.605 29.8413C203.039 29.3006 202.601 28.6955 202.292 28.0261C202.009 27.3566 201.867 26.6614 201.867 25.9404C201.867 24.4985 202.305 23.2626 203.18 22.2327C204.056 21.177 205.163 20.3144 206.502 19.645C207.867 18.9498 209.373 18.4477 211.021 18.1387C212.694 17.804 214.304 17.6366 215.849 17.6366ZM215.849 18.1001C214.226 18.1001 212.72 18.2932 211.33 18.6794C209.965 19.0656 208.781 19.6064 207.777 20.3016C206.772 20.9968 205.987 21.8465 205.421 22.8506C204.854 23.8291 204.571 24.9363 204.571 26.1722C204.571 27.0991 204.7 27.8716 204.957 28.4895C205.24 29.0817 205.575 29.5581 205.961 29.9186C206.373 30.279 206.824 30.5365 207.313 30.691C207.802 30.8198 208.279 30.8841 208.742 30.8841C209.952 30.8841 210.995 30.6266 211.87 30.1117C212.772 29.5967 213.518 28.953 214.111 28.1806C214.703 27.3824 215.141 26.5198 215.424 25.5928C215.707 24.6659 215.849 23.7905 215.849 22.9665V18.1001Z" fill="url(#paint0_linear_41_9)"/>
<path d="M119.212 67.4964C119.212 69.3034 118.79 70.9498 117.947 72.4355C117.144 73.9212 116.04 75.2062 114.634 76.2904C113.229 77.3344 111.603 78.1576 109.755 78.7599C107.908 79.3622 105.961 79.6634 103.913 79.6634C99.6967 79.6634 96.0627 78.9807 93.0109 77.6155C89.9591 76.2101 87.7305 74.3629 86.3251 72.0741L87.9514 65.9304H88.3128C88.7143 68.2995 89.3769 70.3073 90.3004 71.9536C91.2642 73.6 92.4086 74.9452 93.7337 75.9892C95.099 76.9931 96.6449 77.7359 98.3716 78.2178C100.098 78.6595 101.945 78.8804 103.913 78.8804C105.479 78.8804 106.985 78.6595 108.43 78.2178C109.876 77.7761 111.141 77.1336 112.225 76.2904C113.349 75.4471 114.233 74.4031 114.875 73.1583C115.518 71.8733 115.839 70.4077 115.839 68.7613C115.839 67.1551 115.457 65.7899 114.695 64.6655C113.972 63.5412 113.008 62.5775 111.803 61.7744C110.599 60.9311 109.213 60.2083 107.647 59.606C106.121 59.0037 104.535 58.4014 102.889 57.799C101.283 57.1967 99.6967 56.5743 98.1306 55.9318C96.6048 55.2894 95.2395 54.5264 94.0348 53.643C92.8302 52.7195 91.8464 51.6353 91.0835 50.3905C90.3607 49.1055 89.9993 47.5595 89.9993 45.7526C89.9993 44.4676 90.2603 43.2228 90.7823 42.0182C91.3043 40.8135 92.0873 39.7494 93.1314 38.8259C94.2155 37.9023 95.5607 37.1594 97.1669 36.5973C98.8133 35.9949 100.721 35.6938 102.889 35.6938C105.499 35.6938 107.868 35.9949 109.996 36.5973C112.165 37.1594 114.213 38.3038 116.14 40.0305L116.803 47.3789H116.441C115.598 45.0097 114.634 43.1024 113.55 41.6568C112.506 40.2112 111.382 39.1069 110.177 38.344C108.972 37.5811 107.748 37.0791 106.503 36.8382C105.258 36.5973 104.053 36.4768 102.889 36.4768C101.162 36.4768 99.6766 36.6977 98.4318 37.1394C97.187 37.5811 96.1631 38.1633 95.36 38.8861C94.5569 39.6089 93.9545 40.4722 93.553 41.4761C93.1916 42.4398 93.0109 43.4638 93.0109 44.5479C93.0109 45.9132 93.3723 47.0978 94.0951 48.1016C94.858 49.0654 95.8619 49.9287 97.1067 50.6916C98.3515 51.4144 99.7569 52.077 101.323 52.6793C102.889 53.2816 104.475 53.904 106.081 54.5465C107.728 55.1488 109.334 55.8114 110.9 56.5342C112.466 57.257 113.871 58.1203 115.116 59.1242C116.361 60.128 117.345 61.3126 118.068 62.6779C118.83 64.003 119.212 65.6092 119.212 67.4964ZM122.033 63.7018C122.033 61.2925 122.475 59.1242 123.359 57.1967C124.242 55.2291 125.406 53.5426 126.852 52.1372C128.338 50.7318 130.044 49.6476 131.972 48.8847C133.939 48.1217 135.987 47.7402 138.115 47.7402C140.244 47.7402 142.272 48.1217 144.199 48.8847C146.126 49.6476 147.833 50.7318 149.319 52.1372C150.804 53.5426 151.969 55.2291 152.812 57.1967C153.696 59.1242 154.137 61.2925 154.137 63.7018C154.137 66.1111 153.696 68.2995 152.812 70.2671C151.969 72.1946 150.804 73.861 149.319 75.2664C147.833 76.6718 146.126 77.756 144.199 78.519C142.272 79.2819 140.244 79.6634 138.115 79.6634C135.987 79.6634 133.939 79.2819 131.972 78.519C130.044 77.756 128.338 76.6718 126.852 75.2664C125.406 73.861 124.242 72.1946 123.359 70.2671C122.475 68.2995 122.033 66.1111 122.033 63.7018ZM126.25 63.7018C126.25 66.0308 126.551 68.1389 127.153 70.0262C127.756 71.8733 128.579 73.4594 129.623 74.7846C130.707 76.1097 131.972 77.1336 133.417 77.8564C134.863 78.539 136.429 78.8804 138.115 78.8804C139.802 78.8804 141.348 78.539 142.753 77.8564C144.199 77.1336 145.444 76.1097 146.488 74.7846C147.572 73.4594 148.415 71.8733 149.018 70.0262C149.62 68.1389 149.921 66.0308 149.921 63.7018C149.921 61.3728 149.62 59.2848 149.018 57.4376C148.415 55.5504 147.572 53.9442 146.488 52.6191C145.444 51.294 144.199 50.2901 142.753 49.6074C141.348 48.8847 139.802 48.5233 138.115 48.5233C136.429 48.5233 134.863 48.8847 133.417 49.6074C131.972 50.2901 130.707 51.294 129.623 52.6191C128.579 53.9442 127.756 55.5504 127.153 57.4376C126.551 59.2848 126.25 61.3728 126.25 63.7018ZM164.377 75.4471C164.377 76.0494 164.478 76.5514 164.678 76.9529C164.919 77.3545 165.2 77.6556 165.522 77.8564C165.883 78.0572 166.244 78.1977 166.606 78.278C166.967 78.3583 167.268 78.3985 167.509 78.3985V78.7599H157.149V78.3985C157.39 78.3985 157.691 78.3583 158.053 78.278C158.414 78.1977 158.756 78.0572 159.077 77.8564C159.438 77.6556 159.719 77.3545 159.92 76.9529C160.161 76.5514 160.281 76.0494 160.281 75.4471V53.2816C160.281 52.6793 160.161 52.2175 159.92 51.8963C159.719 51.5349 159.438 51.294 159.077 51.1735C158.756 51.0129 158.414 50.9125 158.053 50.8723C157.691 50.8322 157.39 50.8121 157.149 50.8121V50.4507C157.671 50.4507 158.254 50.4306 158.896 50.3905C159.539 50.3102 160.181 50.2098 160.824 50.0893C161.466 49.9688 162.068 49.7881 162.631 49.5472C163.193 49.3063 163.654 49.0051 164.016 48.6437H164.377V56.5944C164.819 55.5504 165.361 54.5063 166.004 53.4623C166.686 52.4183 167.509 51.4747 168.473 50.6314C169.437 49.7881 170.541 49.1055 171.786 48.5835C173.031 48.0213 174.416 47.7402 175.942 47.7402C177.468 47.7402 178.672 48.0615 179.556 48.704C180.479 49.3464 180.941 50.1295 180.941 51.053C180.941 51.7758 180.66 52.2978 180.098 52.6191C179.576 52.9001 179.154 53.0407 178.833 53.0407C178.231 53.0407 177.689 52.9202 177.207 52.6793C176.725 52.3982 176.263 52.1171 175.821 51.836C175.42 51.5148 174.978 51.2337 174.496 50.9928C174.055 50.7117 173.553 50.5712 172.99 50.5712C172.027 50.5712 171.083 50.8121 170.16 51.294C169.236 51.7357 168.393 52.338 167.63 53.1009C166.907 53.8237 166.265 54.687 165.702 55.6909C165.14 56.6546 164.698 57.6585 164.377 58.7025V75.4471ZM185.664 38.344C185.664 37.6614 185.905 37.059 186.387 36.537C186.868 35.9749 187.511 35.6938 188.314 35.6938C189.117 35.6938 189.76 35.9749 190.241 36.537C190.723 37.059 190.964 37.6614 190.964 38.344C190.964 39.0266 190.723 39.6691 190.241 40.2714C189.76 40.8336 189.117 41.1147 188.314 41.1147C187.511 41.1147 186.868 40.8336 186.387 40.2714C185.905 39.6691 185.664 39.0266 185.664 38.344ZM190.964 75.4471C190.964 76.0494 191.065 76.5514 191.265 76.9529C191.506 77.3545 191.787 77.6556 192.109 77.8564C192.47 78.0572 192.831 78.1977 193.193 78.278C193.554 78.3583 193.855 78.3985 194.096 78.3985V78.7599H183.736V78.3985C183.977 78.3985 184.278 78.3583 184.64 78.278C185.001 78.1977 185.342 78.0572 185.664 77.8564C186.025 77.6556 186.306 77.3545 186.507 76.9529C186.748 76.5514 186.868 76.0494 186.868 75.4471V53.2816C186.868 52.6793 186.748 52.2175 186.507 51.8963C186.306 51.5349 186.025 51.294 185.664 51.1735C185.342 51.0129 185.001 50.9125 184.64 50.8723C184.278 50.8322 183.977 50.8121 183.736 50.8121V50.4507C184.258 50.4507 184.841 50.4306 185.483 50.3905C186.126 50.3102 186.768 50.2098 187.41 50.0893C188.053 49.9688 188.655 49.7881 189.217 49.5472C189.78 49.3063 190.241 49.0051 190.603 48.6437H190.964V75.4471ZM218.652 57.9195C218.652 55.9519 218.371 54.3658 217.808 53.1612C217.286 51.9164 216.624 50.9526 215.821 50.27C215.018 49.5472 214.114 49.0654 213.11 48.8244C212.147 48.5835 211.243 48.463 210.4 48.463C208.914 48.463 207.77 48.6839 206.967 49.1256C206.164 49.5271 205.561 50.0492 205.16 50.6916C204.758 51.3341 204.457 52.0368 204.256 52.7998C204.096 53.5225 203.915 54.2052 203.714 54.8477C203.513 55.4901 203.232 56.0322 202.871 56.4739C202.509 56.8755 201.907 57.0763 201.064 57.0763C200.542 57.0763 200.02 56.9156 199.498 56.5944C198.976 56.2732 198.715 55.6508 198.715 54.7272C198.715 54.1249 198.875 53.4222 199.197 52.6191C199.558 51.816 200.18 51.053 201.064 50.3302C201.947 49.6074 203.132 49.0051 204.618 48.5233C206.143 48.0013 208.071 47.7402 210.4 47.7402C211.645 47.7402 212.99 47.9009 214.435 48.2221C215.881 48.5032 217.206 49.0252 218.411 49.7881C219.656 50.5511 220.68 51.5951 221.483 52.9202C222.326 54.2052 222.748 55.8716 222.748 57.9195V75.4471C222.748 75.7683 222.848 76.0093 223.049 76.1699C223.29 76.3305 223.571 76.451 223.892 76.5313C224.253 76.5714 224.615 76.5915 224.976 76.5915C225.338 76.5915 225.639 76.5915 225.88 76.5915V76.9529L219.013 78.7599H218.652V70.5683C218.29 71.6926 217.768 72.817 217.086 73.9413C216.443 75.0255 215.66 75.9892 214.737 76.8325C213.813 77.6757 212.749 78.3583 211.544 78.8804C210.34 79.4024 209.015 79.6634 207.569 79.6634C205.842 79.6634 204.296 79.4024 202.931 78.8804C201.606 78.3985 200.482 77.756 199.558 76.9529C198.675 76.1097 197.992 75.166 197.51 74.122C197.068 73.078 196.848 71.9938 196.848 70.8695C196.848 68.6208 197.53 66.6933 198.896 65.0872C200.261 63.4408 201.987 62.0956 204.076 61.0516C206.204 59.9674 208.553 59.1844 211.123 58.7025C213.733 58.1805 216.242 57.9195 218.652 57.9195ZM218.652 58.6423C216.122 58.6423 213.773 58.9435 211.605 59.5458C209.476 60.1481 207.629 60.9914 206.063 62.0755C204.497 63.1597 203.272 64.4848 202.389 66.0509C201.506 67.5768 201.064 69.3034 201.064 71.2308C201.064 72.6764 201.265 73.8811 201.666 74.8448C202.108 75.7683 202.63 76.5112 203.232 77.0734C203.875 77.6356 204.577 78.0371 205.34 78.278C206.103 78.4788 206.846 78.5792 207.569 78.5792C209.456 78.5792 211.083 78.1776 212.448 77.3745C213.853 76.5714 215.018 75.5676 215.941 74.3629C216.865 73.1181 217.547 71.7729 217.989 70.3274C218.431 68.8818 218.652 67.5165 218.652 66.2316V58.6423ZM235.785 75.4471C235.785 76.0494 235.886 76.5514 236.087 76.9529C236.328 77.3545 236.609 77.6556 236.93 77.8564C237.291 78.0572 237.653 78.1977 238.014 78.278C238.375 78.3583 238.677 78.3985 238.918 78.3985V78.7599H228.558V78.3985C228.799 78.3985 229.1 78.3583 229.461 78.278C229.822 78.1977 230.164 78.0572 230.485 77.8564C230.846 77.6556 231.128 77.3545 231.328 76.9529C231.569 76.5514 231.69 76.0494 231.69 75.4471V53.2816C231.69 52.6793 231.569 52.2175 231.328 51.8963C231.128 51.5349 230.846 51.294 230.485 51.1735C230.164 51.0129 229.822 50.9125 229.461 50.8723C229.1 50.8322 228.799 50.8121 228.558 50.8121V50.4507C229.08 50.4507 229.662 50.4306 230.304 50.3905C230.947 50.3102 231.589 50.2098 232.232 50.0893C232.874 49.9688 233.477 49.7881 234.039 49.5472C234.601 49.3063 235.063 49.0051 235.424 48.6437H235.785V56.5944C236.227 55.5504 236.769 54.5063 237.412 53.4623C238.094 52.4183 238.877 51.4747 239.761 50.6314C240.684 49.7881 241.728 49.1055 242.893 48.5835C244.057 48.0213 245.342 47.7402 246.748 47.7402C247.671 47.7402 248.695 47.9009 249.82 48.2221C250.984 48.5032 252.068 49.0252 253.072 49.7881C254.116 50.5511 254.98 51.5951 255.662 52.9202C256.385 54.2052 256.746 55.8716 256.746 57.9195V75.4471C256.746 76.0494 256.847 76.5514 257.047 76.9529C257.288 77.3545 257.569 77.6556 257.891 77.8564C258.252 78.0572 258.614 78.1977 258.975 78.278C259.336 78.3583 259.637 78.3985 259.878 78.3985V78.7599H249.518V78.3985C249.759 78.3985 250.061 78.3583 250.422 78.278C250.783 78.1977 251.125 78.0572 251.446 77.8564C251.807 77.6556 252.088 77.3545 252.289 76.9529C252.53 76.5514 252.651 76.0494 252.651 75.4471V57.9195C252.651 55.9519 252.43 54.406 251.988 53.2816C251.586 52.1171 251.064 51.2337 250.422 50.6314C249.82 50.0291 249.157 49.6476 248.434 49.487C247.711 49.3264 247.029 49.2461 246.386 49.2461C244.901 49.2461 243.555 49.5472 242.351 50.1495C241.186 50.7519 240.162 51.5148 239.279 52.4384C238.396 53.3619 237.673 54.3859 237.111 55.5102C236.548 56.5944 236.107 57.6585 235.785 58.7025V75.4471ZM262.321 63.7018C262.321 61.2925 262.762 59.1242 263.646 57.1967C264.529 55.2291 265.694 53.5426 267.139 52.1372C268.625 50.7318 270.332 49.6476 272.259 48.8847C274.227 48.1217 276.274 47.7402 278.403 47.7402C280.531 47.7402 282.559 48.1217 284.486 48.8847C286.414 49.6476 288.12 50.7318 289.606 52.1372C291.092 53.5426 292.256 55.2291 293.099 57.1967C293.983 59.1242 294.424 61.2925 294.424 63.7018C294.424 66.1111 293.983 68.2995 293.099 70.2671C292.256 72.1946 291.092 73.861 289.606 75.2664C288.12 76.6718 286.414 77.756 284.486 78.519C282.559 79.2819 280.531 79.6634 278.403 79.6634C276.274 79.6634 274.227 79.2819 272.259 78.519C270.332 77.756 268.625 76.6718 267.139 75.2664C265.694 73.861 264.529 72.1946 263.646 70.2671C262.762 68.2995 262.321 66.1111 262.321 63.7018ZM266.537 63.7018C266.537 66.0308 266.838 68.1389 267.44 70.0262C268.043 71.8733 268.866 73.4594 269.91 74.7846C270.994 76.1097 272.259 77.1336 273.705 77.8564C275.15 78.539 276.716 78.8804 278.403 78.8804C280.089 78.8804 281.635 78.539 283.041 77.8564C284.486 77.1336 285.731 76.1097 286.775 74.7846C287.859 73.4594 288.702 71.8733 289.305 70.0262C289.907 68.1389 290.208 66.0308 290.208 63.7018C290.208 61.3728 289.907 59.2848 289.305 57.4376C288.702 55.5504 287.859 53.9442 286.775 52.6191C285.731 51.294 284.486 50.2901 283.041 49.6074C281.635 48.8847 280.089 48.5233 278.403 48.5233C276.716 48.5233 275.15 48.8847 273.705 49.6074C272.259 50.2901 270.994 51.294 269.91 52.6191C268.866 53.9442 268.043 55.5504 267.44 57.4376C266.838 59.2848 266.537 61.3728 266.537 63.7018Z" fill="url(#paint1_linear_41_9)"/>
<path d="M94.1257 91.156C94.1257 91.6726 94.0361 92.1524 93.8568 92.5952C93.6776 93.0275 93.4087 93.4071 93.0502 93.734C92.6917 94.0503 92.2384 94.3033 91.6901 94.4931C91.1523 94.6724 90.5197 94.762 89.7922 94.762H87.2933V97.7512C87.2933 97.9093 87.3196 98.0411 87.3724 98.1466C87.4356 98.252 87.5094 98.3311 87.5938 98.3838C87.6887 98.4365 87.7836 98.4734 87.8785 98.4945C87.9734 98.5156 88.0524 98.5261 88.1157 98.5261V98.621H85.3954V98.5261C85.4587 98.5261 85.5377 98.5156 85.6326 98.4945C85.7275 98.4734 85.8171 98.4365 85.9015 98.3838C85.9964 98.3311 86.0702 98.252 86.1229 98.1466C86.1862 98.0411 86.2178 97.9093 86.2178 97.7512V88.4198C86.2178 88.2617 86.1862 88.1299 86.1229 88.0245C86.0702 87.919 85.9964 87.8399 85.9015 87.7872C85.8171 87.7345 85.7275 87.6976 85.6326 87.6765C85.5377 87.6554 85.4587 87.6449 85.3954 87.6449V87.55H89.7922C90.5197 87.55 91.1523 87.6449 91.6901 87.8347C92.2384 88.0139 92.6917 88.267 93.0502 88.5938C93.4087 88.9101 93.6776 89.2897 93.8568 89.7326C94.0361 90.1649 94.1257 90.6393 94.1257 91.156ZM87.2933 94.5722H89.8713C90.3668 94.5722 90.8097 94.5142 91.1998 94.3982C91.5899 94.2717 91.9168 94.0766 92.1804 93.813C92.4545 93.5389 92.6601 93.1857 92.7972 92.7534C92.9448 92.3105 93.0186 91.7781 93.0186 91.156C93.0186 90.5339 92.9448 90.0067 92.7972 89.5744C92.6601 89.1316 92.4545 88.7783 92.1804 88.5147C91.9168 88.2406 91.5899 88.0455 91.1998 87.9296C90.8097 87.803 90.3668 87.7398 89.8713 87.7398H87.2933V94.5722ZM109.602 96.7706C109.602 97.108 109.518 97.4085 109.349 97.6721C109.18 97.9357 108.954 98.1571 108.669 98.3363C108.384 98.5051 108.052 98.6316 107.673 98.7159C107.293 98.8108 106.887 98.8583 106.455 98.8583C105.685 98.8583 105.037 98.737 104.509 98.4945C103.993 98.252 103.566 97.941 103.228 97.5614L103.545 95.8533H103.655C103.803 96.76 104.125 97.4559 104.62 97.941C105.126 98.4154 105.738 98.6527 106.455 98.6527C107.14 98.6527 107.662 98.5367 108.021 98.3047C108.379 98.0728 108.558 97.6405 108.558 97.0078C108.558 96.6493 108.437 96.3488 108.194 96.1063C107.963 95.8638 107.667 95.6477 107.309 95.4579C106.95 95.2681 106.56 95.0888 106.138 94.9201C105.717 94.7409 105.327 94.5406 104.968 94.3191C104.61 94.0977 104.309 93.8341 104.067 93.5283C103.835 93.2226 103.719 92.843 103.719 92.3896C103.719 92.1471 103.771 91.9151 103.877 91.6937C103.982 91.4618 104.14 91.2561 104.351 91.0769C104.573 90.8977 104.852 90.7553 105.189 90.6499C105.527 90.5339 105.928 90.4759 106.391 90.4759C106.645 90.4759 106.929 90.497 107.246 90.5392C107.562 90.5708 107.862 90.6341 108.147 90.729C108.432 90.8133 108.669 90.924 108.859 91.0611C109.059 91.1982 109.159 91.3669 109.159 91.5672C109.159 91.6937 109.112 91.815 109.017 91.931C108.922 92.0364 108.806 92.0891 108.669 92.0891C108.479 92.0891 108.321 92.0153 108.194 91.8677C108.078 91.7201 107.941 91.5619 107.783 91.3932C107.636 91.214 107.456 91.0505 107.246 90.9029C107.035 90.7553 106.75 90.6815 106.391 90.6815C106.086 90.6815 105.827 90.7237 105.617 90.808C105.406 90.8818 105.232 90.982 105.095 91.1085C104.968 91.2351 104.873 91.3827 104.81 91.5514C104.757 91.7095 104.731 91.8782 104.731 92.0575C104.731 92.416 104.852 92.7217 105.095 92.9748C105.337 93.2173 105.638 93.4335 105.996 93.6232C106.355 93.813 106.745 93.9975 107.166 94.1768C107.588 94.3455 107.978 94.5458 108.337 94.7778C108.695 94.9992 108.996 95.2681 109.238 95.5844C109.481 95.9007 109.602 96.2961 109.602 96.7706ZM119.162 88.0086C119.162 87.8294 119.225 87.6712 119.351 87.5342C119.478 87.3865 119.647 87.3127 119.858 87.3127C120.068 87.3127 120.237 87.3865 120.364 87.5342C120.49 87.6712 120.553 87.8294 120.553 88.0086C120.553 88.1879 120.49 88.3566 120.364 88.5147C120.237 88.6624 120.068 88.7362 119.858 88.7362C119.647 88.7362 119.478 88.6624 119.351 88.5147C119.225 88.3566 119.162 88.1879 119.162 88.0086ZM120.553 97.7512C120.553 97.9093 120.58 98.0411 120.632 98.1466C120.696 98.252 120.77 98.3311 120.854 98.3838C120.949 98.4365 121.044 98.4734 121.139 98.4945C121.233 98.5156 121.313 98.5261 121.376 98.5261V98.621H118.656V98.5261C118.719 98.5261 118.798 98.5156 118.893 98.4945C118.988 98.4734 119.077 98.4365 119.162 98.3838C119.257 98.3311 119.33 98.252 119.383 98.1466C119.446 98.0411 119.478 97.9093 119.478 97.7512V91.931C119.478 91.7728 119.446 91.6515 119.383 91.5672C119.33 91.4723 119.257 91.409 119.162 91.3774C119.077 91.3352 118.988 91.3089 118.893 91.2983C118.798 91.2878 118.719 91.2825 118.656 91.2825V91.1876C118.793 91.1876 118.945 91.1823 119.114 91.1718C119.283 91.1507 119.452 91.1243 119.62 91.0927C119.789 91.0611 119.947 91.0136 120.095 90.9504C120.242 90.8871 120.364 90.808 120.459 90.7131H120.553V97.7512ZM134.783 98.8583C134.224 98.8583 133.686 98.7581 133.169 98.5578C132.663 98.3574 132.215 98.0728 131.825 97.7037C131.445 97.3347 131.14 96.8971 130.908 96.391C130.676 95.8744 130.56 95.2997 130.56 94.6671C130.56 94.0345 130.676 93.4651 130.908 92.959C131.14 92.4423 131.445 91.9995 131.825 91.6305C132.215 91.2614 132.663 90.9767 133.169 90.7764C133.686 90.5761 134.224 90.4759 134.783 90.4759C135.373 90.4759 135.937 90.5761 136.475 90.7764C137.023 90.9662 137.461 91.2614 137.788 91.6621L137.93 93.0064H137.835C137.413 92.1945 136.97 91.6041 136.506 91.2351C136.043 90.866 135.468 90.6815 134.783 90.6815C134.34 90.6815 133.928 90.7764 133.549 90.9662C133.169 91.1454 132.837 91.409 132.553 91.757C132.278 92.1049 132.062 92.5267 131.904 93.0222C131.746 93.5073 131.667 94.0555 131.667 94.6671C131.667 95.2786 131.746 95.8322 131.904 96.3277C132.062 96.8128 132.278 97.2292 132.553 97.5772C132.837 97.9251 133.169 98.194 133.549 98.3838C133.928 98.563 134.34 98.6527 134.783 98.6527C135.468 98.6527 136.043 98.4681 136.506 98.0991C136.97 97.7301 137.413 97.1396 137.835 96.3277H137.93L137.788 97.6721C137.461 98.0728 137.023 98.3733 136.475 98.5736C135.937 98.7634 135.373 98.8583 134.783 98.8583ZM147.112 94.6671C147.112 94.0345 147.228 93.4651 147.46 92.959C147.692 92.4423 147.998 91.9995 148.377 91.6305C148.768 91.2614 149.216 90.9767 149.722 90.7764C150.238 90.5761 150.776 90.4759 151.335 90.4759C151.894 90.4759 152.426 90.5761 152.932 90.7764C153.439 90.9767 153.887 91.2614 154.277 91.6305C154.667 91.9995 154.973 92.4423 155.194 92.959C155.426 93.4651 155.542 94.0345 155.542 94.6671C155.542 95.2997 155.426 95.8744 155.194 96.391C154.973 96.8971 154.667 97.3347 154.277 97.7037C153.887 98.0728 153.439 98.3574 152.932 98.5578C152.426 98.7581 151.894 98.8583 151.335 98.8583C150.776 98.8583 150.238 98.7581 149.722 98.5578C149.216 98.3574 148.768 98.0728 148.377 97.7037C147.998 97.3347 147.692 96.8971 147.46 96.391C147.228 95.8744 147.112 95.2997 147.112 94.6671ZM148.219 94.6671C148.219 95.2786 148.298 95.8322 148.457 96.3277C148.615 96.8128 148.831 97.2292 149.105 97.5772C149.39 97.9251 149.722 98.194 150.101 98.3838C150.481 98.563 150.892 98.6527 151.335 98.6527C151.778 98.6527 152.184 98.563 152.553 98.3838C152.932 98.194 153.259 97.9251 153.533 97.5772C153.818 97.2292 154.04 96.8128 154.198 96.3277C154.356 95.8322 154.435 95.2786 154.435 94.6671C154.435 94.0555 154.356 93.5073 154.198 93.0222C154.04 92.5267 153.818 92.1049 153.533 91.757C153.259 91.409 152.932 91.1454 152.553 90.9662C152.184 90.7764 151.778 90.6815 151.335 90.6815C150.892 90.6815 150.481 90.7764 150.101 90.9662C149.722 91.1454 149.39 91.409 149.105 91.757C148.831 92.1049 148.615 92.5267 148.457 93.0222C148.298 93.5073 148.219 94.0555 148.219 94.6671ZM166.551 101.705C166.551 101.863 166.583 101.995 166.646 102.101C166.71 102.206 166.783 102.285 166.868 102.338C166.952 102.39 167.042 102.427 167.137 102.448C167.231 102.47 167.311 102.48 167.374 102.48V102.575H164.669V102.48C164.733 102.48 164.806 102.47 164.891 102.448C164.986 102.427 165.075 102.39 165.16 102.338C165.255 102.285 165.328 102.206 165.381 102.101C165.444 101.995 165.476 101.863 165.476 101.705V91.9942C165.476 91.815 165.444 91.6779 165.381 91.583C165.328 91.4881 165.255 91.4196 165.16 91.3774C165.075 91.3352 164.986 91.3089 164.891 91.2983C164.806 91.2878 164.733 91.2825 164.669 91.2825V91.1876C164.806 91.1876 164.959 91.1823 165.128 91.1718C165.297 91.1507 165.46 91.1243 165.618 91.0927C165.787 91.0611 165.945 91.0136 166.093 90.9504C166.251 90.8871 166.377 90.808 166.472 90.7131H166.551V91.7095C166.636 91.5619 166.741 91.4143 166.868 91.2667C167.005 91.1191 167.168 90.9873 167.358 90.8713C167.548 90.7553 167.764 90.6604 168.006 90.5866C168.249 90.5128 168.528 90.4759 168.845 90.4759C169.372 90.4759 169.878 90.5708 170.363 90.7606C170.859 90.9398 171.296 91.2087 171.676 91.5672C172.055 91.9151 172.356 92.3527 172.577 92.8799C172.809 93.3965 172.925 93.9923 172.925 94.6671C172.925 95.3313 172.83 95.9271 172.64 96.4543C172.461 96.9709 172.203 97.4085 171.866 97.767C171.539 98.1149 171.149 98.3838 170.695 98.5736C170.252 98.7634 169.767 98.8583 169.24 98.8583C168.882 98.8583 168.555 98.8108 168.26 98.7159C167.975 98.6316 167.722 98.5209 167.5 98.3838C167.279 98.2362 167.089 98.078 166.931 97.9093C166.773 97.7301 166.646 97.5561 166.551 97.3874V101.705ZM171.818 94.6671C171.818 94.0028 171.739 93.4282 171.581 92.9432C171.423 92.4581 171.207 92.0522 170.932 91.7253C170.658 91.3985 170.342 91.156 169.983 90.9978C169.625 90.8397 169.245 90.7606 168.845 90.7606C168.423 90.7606 168.07 90.8186 167.785 90.9346C167.5 91.04 167.268 91.1771 167.089 91.3458C166.92 91.5039 166.794 91.6726 166.71 91.8519C166.625 92.0311 166.573 92.184 166.551 92.3105V96.8338C166.573 96.992 166.646 97.1713 166.773 97.3716C166.899 97.5614 167.073 97.7406 167.295 97.9093C167.527 98.078 167.806 98.2204 168.133 98.3363C168.46 98.4418 168.829 98.4945 169.24 98.4945C169.578 98.4945 169.899 98.4154 170.205 98.2573C170.521 98.0991 170.795 97.8619 171.027 97.5456C171.27 97.2292 171.46 96.8338 171.597 96.3594C171.744 95.8744 171.818 95.3103 171.818 94.6671ZM187.764 93.1488C187.764 92.6321 187.69 92.2156 187.543 91.8993C187.406 91.5725 187.232 91.3194 187.021 91.1402C186.81 90.9504 186.573 90.8238 186.309 90.7606C186.056 90.6973 185.819 90.6657 185.597 90.6657C185.207 90.6657 184.907 90.7237 184.696 90.8397C184.485 90.9451 184.327 91.0822 184.221 91.2509C184.116 91.4196 184.037 91.6041 183.984 91.8044C183.942 91.9942 183.895 92.1735 183.842 92.3422C183.789 92.5109 183.715 92.6532 183.62 92.7692C183.526 92.8746 183.367 92.9273 183.146 92.9273C183.009 92.9273 182.872 92.8852 182.735 92.8008C182.598 92.7165 182.529 92.553 182.529 92.3105C182.529 92.1524 182.571 91.9679 182.656 91.757C182.751 91.5461 182.914 91.3458 183.146 91.156C183.378 90.9662 183.689 90.808 184.079 90.6815C184.48 90.5444 184.986 90.4759 185.597 90.4759C185.924 90.4759 186.278 90.5181 186.657 90.6024C187.037 90.6762 187.385 90.8133 187.701 91.0136C188.028 91.214 188.297 91.4881 188.508 91.8361C188.729 92.1735 188.84 92.611 188.84 93.1488V97.7512C188.84 97.8355 188.866 97.8988 188.919 97.941C188.982 97.9831 189.056 98.0148 189.14 98.0358C189.235 98.0464 189.33 98.0517 189.425 98.0517C189.52 98.0517 189.599 98.0517 189.662 98.0517V98.1466L187.859 98.621H187.764V96.4701C187.669 96.7653 187.532 97.0605 187.353 97.3558C187.184 97.6405 186.979 97.8935 186.736 98.1149C186.494 98.3363 186.214 98.5156 185.898 98.6527C185.582 98.7897 185.234 98.8583 184.854 98.8583C184.401 98.8583 183.995 98.7897 183.636 98.6527C183.288 98.5261 182.993 98.3574 182.751 98.1466C182.519 97.9251 182.339 97.6774 182.213 97.4032C182.097 97.1291 182.039 96.8444 182.039 96.5492C182.039 95.9587 182.218 95.4526 182.577 95.0308C182.935 94.5985 183.389 94.2453 183.937 93.9712C184.496 93.6865 185.112 93.4809 185.787 93.3544C186.473 93.2173 187.132 93.1488 187.764 93.1488ZM187.764 93.3386C187.1 93.3386 186.483 93.4176 185.914 93.5758C185.355 93.734 184.87 93.9554 184.459 94.2401C184.048 94.5247 183.726 94.8727 183.494 95.2839C183.262 95.6846 183.146 96.138 183.146 96.6441C183.146 97.0236 183.199 97.34 183.304 97.593C183.42 97.8355 183.557 98.0306 183.715 98.1782C183.884 98.3258 184.069 98.4312 184.269 98.4945C184.469 98.5472 184.664 98.5736 184.854 98.5736C185.35 98.5736 185.777 98.4681 186.135 98.2573C186.504 98.0464 186.81 97.7828 187.053 97.4665C187.295 97.1396 187.474 96.7864 187.59 96.4068C187.706 96.0272 187.764 95.6688 187.764 95.3313V93.3386ZM200.23 96.992C200.23 97.2767 200.256 97.5087 200.309 97.6879C200.361 97.8671 200.43 98.0095 200.514 98.1149C200.609 98.2098 200.715 98.2731 200.831 98.3047C200.947 98.3363 201.068 98.3522 201.194 98.3522C201.5 98.3522 201.78 98.2309 202.033 97.9884C202.296 97.7459 202.465 97.3927 202.539 96.9287H202.744C202.66 97.4981 202.454 97.962 202.128 98.3205C201.811 98.679 201.4 98.8583 200.894 98.8583C200.746 98.8583 200.572 98.8372 200.372 98.795C200.172 98.7528 199.982 98.6685 199.803 98.542C199.623 98.4049 199.471 98.2151 199.344 97.9726C199.217 97.7195 199.154 97.3927 199.154 96.992V90.9029H198.237V90.7131C198.374 90.7131 198.548 90.6762 198.759 90.6024C198.98 90.5181 199.191 90.4021 199.391 90.2545C199.592 90.1069 199.766 89.9223 199.913 89.7009C200.061 89.4795 200.135 89.2265 200.135 88.9418H200.23V90.7131H202.254V90.9029H200.23V96.992ZM211.686 94.6671C211.686 94.0345 211.802 93.4651 212.034 92.959C212.266 92.4423 212.572 91.9995 212.952 91.6305C213.342 91.2614 213.79 90.9767 214.296 90.7764C214.813 90.5761 215.35 90.4759 215.909 90.4759C216.468 90.4759 217 90.5761 217.507 90.7764C218.013 90.9767 218.461 91.2614 218.851 91.6305C219.241 91.9995 219.547 92.4423 219.768 92.959C220 93.4651 220.116 94.0345 220.116 94.6671C220.116 95.2997 220 95.8744 219.768 96.391C219.547 96.8971 219.241 97.3347 218.851 97.7037C218.461 98.0728 218.013 98.3574 217.507 98.5578C217 98.7581 216.468 98.8583 215.909 98.8583C215.35 98.8583 214.813 98.7581 214.296 98.5578C213.79 98.3574 213.342 98.0728 212.952 97.7037C212.572 97.3347 212.266 96.8971 212.034 96.391C211.802 95.8744 211.686 95.2997 211.686 94.6671ZM212.793 94.6671C212.793 95.2786 212.873 95.8322 213.031 96.3277C213.189 96.8128 213.405 97.2292 213.679 97.5772C213.964 97.9251 214.296 98.194 214.676 98.3838C215.055 98.563 215.466 98.6527 215.909 98.6527C216.352 98.6527 216.758 98.563 217.127 98.3838C217.507 98.194 217.833 97.9251 218.108 97.5772C218.392 97.2292 218.614 96.8128 218.772 96.3277C218.93 95.8322 219.009 95.2786 219.009 94.6671C219.009 94.0555 218.93 93.5073 218.772 93.0222C218.614 92.5267 218.392 92.1049 218.108 91.757C217.833 91.409 217.507 91.1454 217.127 90.9662C216.758 90.7764 216.352 90.6815 215.909 90.6815C215.466 90.6815 215.055 90.7764 214.676 90.9662C214.296 91.1454 213.964 91.409 213.679 91.757C213.405 92.1049 213.189 92.5267 213.031 93.0222C212.873 93.5073 212.793 94.0555 212.793 94.6671ZM231.187 97.7512C231.187 97.9093 231.214 98.0411 231.266 98.1466C231.33 98.252 231.403 98.3311 231.488 98.3838C231.583 98.4365 231.678 98.4734 231.773 98.4945C231.867 98.5156 231.947 98.5261 232.01 98.5261V98.621H229.289V98.5261C229.353 98.5261 229.432 98.5156 229.527 98.4945C229.622 98.4734 229.711 98.4365 229.796 98.3838C229.89 98.3311 229.964 98.252 230.017 98.1466C230.08 98.0411 230.112 97.9093 230.112 97.7512V87.977C230.112 87.8188 230.08 87.6976 230.017 87.6132C229.964 87.5183 229.89 87.4551 229.796 87.4235C229.711 87.3813 229.622 87.3549 229.527 87.3444C229.432 87.3338 229.353 87.3286 229.289 87.3286V87.2337C229.427 87.2337 229.579 87.2284 229.748 87.2178C229.917 87.1968 230.086 87.1704 230.254 87.1388C230.423 87.1071 230.581 87.0597 230.729 86.9964C230.876 86.9332 230.998 86.8541 231.092 86.7592H231.187V97.7512ZM241.147 94.6671C241.147 94.0345 241.263 93.4651 241.495 92.959C241.727 92.4423 242.033 91.9995 242.412 91.6305C242.802 91.2614 243.25 90.9767 243.757 90.7764C244.273 90.5761 244.811 90.4759 245.37 90.4759C245.929 90.4759 246.461 90.5761 246.967 90.7764C247.473 90.9767 247.921 91.2614 248.312 91.6305C248.702 91.9995 249.007 92.4423 249.229 92.959C249.461 93.4651 249.577 94.0345 249.577 94.6671C249.577 95.2997 249.461 95.8744 249.229 96.391C249.007 96.8971 248.702 97.3347 248.312 97.7037C247.921 98.0728 247.473 98.3574 246.967 98.5578C246.461 98.7581 245.929 98.8583 245.37 98.8583C244.811 98.8583 244.273 98.7581 243.757 98.5578C243.25 98.3574 242.802 98.0728 242.412 97.7037C242.033 97.3347 241.727 96.8971 241.495 96.391C241.263 95.8744 241.147 95.2997 241.147 94.6671ZM242.254 94.6671C242.254 95.2786 242.333 95.8322 242.491 96.3277C242.649 96.8128 242.866 97.2292 243.14 97.5772C243.424 97.9251 243.757 98.194 244.136 98.3838C244.516 98.563 244.927 98.6527 245.37 98.6527C245.813 98.6527 246.219 98.563 246.588 98.3838C246.967 98.194 247.294 97.9251 247.568 97.5772C247.853 97.2292 248.074 96.8128 248.232 96.3277C248.391 95.8322 248.47 95.2786 248.47 94.6671C248.47 94.0555 248.391 93.5073 248.232 93.0222C248.074 92.5267 247.853 92.1049 247.568 91.757C247.294 91.409 246.967 91.1454 246.588 90.9662C246.219 90.7764 245.813 90.6815 245.37 90.6815C244.927 90.6815 244.516 90.7764 244.136 90.9662C243.757 91.1454 243.424 91.409 243.14 91.757C242.866 92.1049 242.649 92.5267 242.491 93.0222C242.333 93.5073 242.254 94.0555 242.254 94.6671ZM258.718 93.4809C258.718 92.9853 258.819 92.553 259.019 92.184C259.219 91.8044 259.483 91.4881 259.81 91.2351C260.137 90.982 260.506 90.7922 260.917 90.6657C261.328 90.5392 261.745 90.4759 262.166 90.4759C262.219 90.4759 262.272 90.4759 262.324 90.4759C262.388 90.4759 262.446 90.4812 262.498 90.4917C262.52 90.2808 262.572 90.0541 262.657 89.8116C262.751 89.5586 262.878 89.3266 263.036 89.1157C263.194 88.9049 263.384 88.7256 263.606 88.578C263.827 88.4304 264.075 88.3566 264.349 88.3566C264.433 88.3566 264.523 88.3724 264.618 88.404C264.713 88.4251 264.802 88.4673 264.887 88.5306C264.971 88.5938 265.039 88.6729 265.092 88.7678C265.145 88.8627 265.171 88.9787 265.171 89.1157C265.171 89.3688 265.097 89.5586 264.95 89.6851C264.813 89.8116 264.676 89.8749 264.539 89.8749C264.402 89.8749 264.291 89.8591 264.207 89.8275C264.122 89.7958 264.043 89.7642 263.969 89.7326C263.906 89.6904 263.837 89.6535 263.764 89.6218C263.69 89.5902 263.595 89.5744 263.479 89.5744C263.321 89.5744 263.163 89.664 263.005 89.8433C262.846 90.012 262.741 90.2334 262.688 90.5075C263.068 90.5497 263.432 90.6499 263.779 90.808C264.127 90.9556 264.438 91.156 264.713 91.409C264.987 91.6515 265.203 91.9468 265.361 92.2947C265.53 92.6427 265.614 93.0381 265.614 93.4809C265.614 93.9765 265.514 94.414 265.314 94.7936C265.113 95.1626 264.85 95.4737 264.523 95.7267C264.196 95.9798 263.827 96.1696 263.416 96.2961C263.005 96.4226 262.588 96.4859 262.166 96.4859V96.5017C261.945 96.5017 261.713 96.5281 261.47 96.5808C261.228 96.6335 261.001 96.7073 260.79 96.8022C260.59 96.8866 260.421 96.992 260.284 97.1185C260.158 97.2345 260.094 97.361 260.094 97.4981C260.094 97.6141 260.126 97.6932 260.189 97.7353C260.253 97.7775 260.374 97.7986 260.553 97.7986C260.753 97.7986 261.033 97.7881 261.391 97.767C261.76 97.7353 262.245 97.7195 262.846 97.7195C263.331 97.7195 263.753 97.7881 264.112 97.9251C264.47 98.0517 264.771 98.2256 265.013 98.4471C265.256 98.6579 265.435 98.9057 265.551 99.1904C265.677 99.4751 265.741 99.765 265.741 100.06C265.741 100.377 265.672 100.693 265.535 101.009C265.398 101.336 265.182 101.631 264.887 101.895C264.602 102.169 264.238 102.39 263.795 102.559C263.363 102.728 262.846 102.812 262.245 102.812C261.708 102.812 261.228 102.749 260.806 102.622C260.384 102.496 260.026 102.332 259.731 102.132C259.446 101.932 259.225 101.7 259.066 101.436C258.919 101.183 258.845 100.92 258.845 100.645C258.845 100.413 258.898 100.197 259.003 99.997C259.119 99.7967 259.267 99.6174 259.446 99.4593C259.636 99.3011 259.852 99.1588 260.094 99.0322C260.337 98.9163 260.595 98.8161 260.869 98.7317C260.289 98.7423 259.862 98.7054 259.588 98.621C259.325 98.5261 259.193 98.2994 259.193 97.941C259.193 97.7406 259.246 97.5614 259.351 97.4032C259.467 97.2345 259.62 97.0869 259.81 96.9604C260 96.8233 260.216 96.7073 260.458 96.6124C260.711 96.5175 260.98 96.4437 261.265 96.391C260.927 96.3172 260.601 96.2012 260.284 96.0431C259.978 95.8849 259.71 95.6846 259.478 95.4421C259.246 95.189 259.061 94.9043 258.924 94.588C258.787 94.2611 258.718 93.8921 258.718 93.4809ZM259.826 93.4809C259.826 93.9975 259.889 94.4351 260.015 94.7936C260.152 95.1521 260.326 95.4421 260.537 95.6635C260.759 95.8849 261.012 96.0483 261.296 96.1538C261.581 96.2487 261.871 96.2961 262.166 96.2961C262.472 96.2961 262.762 96.2487 263.036 96.1538C263.321 96.0483 263.569 95.8849 263.779 95.6635C264.001 95.4421 264.175 95.1521 264.301 94.7936C264.438 94.4351 264.507 93.9975 264.507 93.4809C264.507 92.9748 264.438 92.5425 264.301 92.184C264.175 91.8255 264.001 91.5356 263.779 91.3141C263.569 91.0927 263.321 90.9346 263.036 90.8397C262.762 90.7342 262.472 90.6815 262.166 90.6815C261.871 90.6815 261.581 90.7342 261.296 90.8397C261.012 90.9346 260.759 91.0927 260.537 91.3141C260.326 91.5356 260.152 91.8255 260.015 92.184C259.889 92.5425 259.826 92.9748 259.826 93.4809ZM259.952 100.645C259.952 100.899 259.984 101.141 260.047 101.373C260.121 101.615 260.242 101.826 260.411 102.006C260.59 102.195 260.827 102.343 261.122 102.448C261.418 102.554 261.792 102.607 262.245 102.607C263.047 102.607 263.658 102.412 264.08 102.021C264.512 101.631 264.728 101.072 264.728 100.345C264.728 99.9548 264.655 99.6438 264.507 99.4118C264.359 99.1904 264.185 99.027 263.985 98.9215C263.785 98.8161 263.574 98.7476 263.352 98.7159C263.142 98.6948 262.973 98.6843 262.846 98.6843C262.498 98.6843 262.15 98.7001 261.803 98.7317C261.455 98.7739 261.144 98.8635 260.869 99.0006C260.595 99.1377 260.374 99.3327 260.205 99.5858C260.036 99.8494 259.952 100.203 259.952 100.645ZM275.377 88.0086C275.377 87.8294 275.44 87.6712 275.566 87.5342C275.693 87.3865 275.862 87.3127 276.072 87.3127C276.283 87.3127 276.452 87.3865 276.579 87.5342C276.705 87.6712 276.768 87.8294 276.768 88.0086C276.768 88.1879 276.705 88.3566 276.579 88.5147C276.452 88.6624 276.283 88.7362 276.072 88.7362C275.862 88.7362 275.693 88.6624 275.566 88.5147C275.44 88.3566 275.377 88.1879 275.377 88.0086ZM276.768 97.7512C276.768 97.9093 276.795 98.0411 276.847 98.1466C276.911 98.252 276.984 98.3311 277.069 98.3838C277.164 98.4365 277.259 98.4734 277.354 98.4945C277.448 98.5156 277.527 98.5261 277.591 98.5261V98.621H274.87V98.5261C274.934 98.5261 275.013 98.5156 275.108 98.4945C275.203 98.4734 275.292 98.4365 275.377 98.3838C275.471 98.3311 275.545 98.252 275.598 98.1466C275.661 98.0411 275.693 97.9093 275.693 97.7512V91.931C275.693 91.7728 275.661 91.6515 275.598 91.5672C275.545 91.4723 275.471 91.409 275.377 91.3774C275.292 91.3352 275.203 91.3089 275.108 91.2983C275.013 91.2878 274.934 91.2825 274.87 91.2825V91.1876C275.008 91.1876 275.16 91.1823 275.329 91.1718C275.498 91.1507 275.667 91.1243 275.835 91.0927C276.004 91.0611 276.162 91.0136 276.31 90.9504C276.457 90.8871 276.579 90.808 276.673 90.7131H276.768V97.7512ZM292.421 93.1488C292.421 92.6321 292.347 92.2156 292.199 91.8993C292.062 91.5725 291.888 91.3194 291.678 91.1402C291.467 90.9504 291.229 90.8238 290.966 90.7606C290.713 90.6973 290.476 90.6657 290.254 90.6657C289.864 90.6657 289.564 90.7237 289.353 90.8397C289.142 90.9451 288.984 91.0822 288.878 91.2509C288.773 91.4196 288.694 91.6041 288.641 91.8044C288.599 91.9942 288.551 92.1735 288.499 92.3422C288.446 92.5109 288.372 92.6532 288.277 92.7692C288.182 92.8746 288.024 92.9273 287.803 92.9273C287.666 92.9273 287.529 92.8852 287.391 92.8008C287.254 92.7165 287.186 92.553 287.186 92.3105C287.186 92.1524 287.228 91.9679 287.312 91.757C287.407 91.5461 287.571 91.3458 287.803 91.156C288.035 90.9662 288.346 90.808 288.736 90.6815C289.136 90.5444 289.643 90.4759 290.254 90.4759C290.581 90.4759 290.934 90.5181 291.314 90.6024C291.693 90.6762 292.041 90.8133 292.358 91.0136C292.684 91.214 292.953 91.4881 293.164 91.8361C293.386 92.1735 293.496 92.611 293.496 93.1488V97.7512C293.496 97.8355 293.523 97.8988 293.575 97.941C293.639 97.9831 293.713 98.0148 293.797 98.0358C293.892 98.0464 293.987 98.0517 294.082 98.0517C294.176 98.0517 294.256 98.0517 294.319 98.0517V98.1466L292.516 98.621H292.421V96.4701C292.326 96.7653 292.189 97.0605 292.01 97.3558C291.841 97.6405 291.635 97.8935 291.393 98.1149C291.15 98.3363 290.871 98.5156 290.555 98.6527C290.238 98.7897 289.89 98.8583 289.511 98.8583C289.057 98.8583 288.651 98.7897 288.293 98.6527C287.945 98.5261 287.65 98.3574 287.407 98.1466C287.175 97.9251 286.996 97.6774 286.87 97.4032C286.754 97.1291 286.696 96.8444 286.696 96.5492C286.696 95.9587 286.875 95.4526 287.233 95.0308C287.592 94.5985 288.045 94.2453 288.593 93.9712C289.152 93.6865 289.769 93.4809 290.444 93.3544C291.129 93.2173 291.788 93.1488 292.421 93.1488ZM292.421 93.3386C291.757 93.3386 291.14 93.4176 290.57 93.5758C290.012 93.734 289.527 93.9554 289.115 94.2401C288.704 94.5247 288.383 94.8727 288.151 95.2839C287.919 95.6846 287.803 96.138 287.803 96.6441C287.803 97.0236 287.855 97.34 287.961 97.593C288.077 97.8355 288.214 98.0306 288.372 98.1782C288.541 98.3258 288.725 98.4312 288.926 98.4945C289.126 98.5472 289.321 98.5736 289.511 98.5736C290.006 98.5736 290.433 98.4681 290.792 98.2573C291.161 98.0464 291.467 97.7828 291.709 97.4665C291.952 97.1396 292.131 96.7864 292.247 96.4068C292.363 96.0272 292.421 95.6688 292.421 95.3313V93.3386Z" fill="url(#paint2_linear_41_9)"/>
<path fill-rule="evenodd" clip-rule="evenodd" d="M42.6946 3.12343C34.599 4.24677 27.898 11.3129 24.2389 22.585C23.1692 25.8806 21.6651 32.0964 21.0202 35.8874L20.7283 37.6026L19.4472 37.3697C17.5273 37.0209 16.2303 36.5024 14.6454 35.4503C11.9579 33.6665 10.4502 31.1802 10.1926 28.1073C9.85943 24.1348 11.7633 21.1204 15.245 20.1073C16.7494 19.6696 17.1335 18.9673 15.8685 18.9673C13.0922 18.9673 10.1586 21.641 9.18678 25.0565C7.6949 30.3001 11.4579 35.9727 17.6315 37.7861C18.4079 38.014 19.3727 38.2006 19.7758 38.2006C20.1896 38.2006 20.5072 38.342 20.5061 38.5255C20.5007 39.3193 18.9017 48.0148 18.176 51.1961C17.4184 54.5178 15.7768 60.0572 15.3415 60.7619C15.1834 61.0176 14.7608 60.9947 13.3412 60.6527C10.905 60.0656 6.78184 60.0559 4.86578 60.6324C0.269272 62.0162 -1.49864 66.4248 1.43783 69.1811C3.71386 71.3176 7.70582 71.2615 11.4966 69.0397C12.713 68.3271 15.4821 65.5102 16.2584 64.1961C16.6251 63.5751 16.8671 63.4202 17.2999 63.5289C17.6097 63.6066 20.5929 65.0028 23.9291 66.6311C27.2653 68.2597 31.106 70.0295 32.4641 70.5638C34.7531 71.4644 35.066 71.6786 36.7526 73.4987C41.2462 78.3484 47.4593 80.8269 55.117 80.8251C62.3932 80.8233 68.0348 78.7988 72.5905 74.555C74.4821 72.7928 76.5134 69.7758 77.3196 67.531C79.0043 62.8388 78.7917 57.1933 76.7759 53.0969C73.9683 47.3908 68.9196 44.0702 57.2855 40.2784C54.1406 39.2533 50.1639 37.8958 48.4485 37.2618C45.3577 36.1198 41.7678 34.1824 40.7656 33.1158L40.2455 32.5621L41.242 31.9028C42.6523 30.9694 45.8811 27.6813 47.6002 25.4281C50.7849 21.2537 52.9969 15.687 52.9969 11.8471V10.7391L54.7513 10.9649C57.2995 11.2927 59.0929 11.8567 61.444 13.0694C64.1253 14.4524 67.2153 17.4858 68.7756 20.2668C69.8409 22.166 71.4506 26.5639 71.4506 27.576C71.4506 28.1348 72.1375 28.5229 72.491 28.1637C72.6194 28.0335 72.3337 26.193 71.83 23.9056C70.7774 19.1235 69.8911 13.5489 69.8911 11.7098C69.8911 10.5636 69.8227 10.3903 69.3713 10.3903C68.9874 10.3903 68.8515 10.5636 68.8515 11.053C68.8515 12.0794 68.1388 13.2225 67.3801 13.413C66.8954 13.5346 65.9373 13.281 64.0709 12.5366C59.1932 10.5914 56.553 9.90241 53.8892 9.87953C52.841 9.87044 52.8283 9.85848 52.3929 8.47758C52.1515 7.71137 51.6054 6.60363 51.1797 6.01571C50.2372 4.71486 48.0841 3.43715 46.5005 3.23909C45.8564 3.15852 45.0372 3.05794 44.6798 3.01531C44.3225 2.97295 43.4291 3.02155 42.6946 3.12343ZM41.4642 4.42896C36.9701 5.53774 32.1301 10.4984 29.6388 16.5491C28.2416 19.9427 26.5966 26.0511 25.5928 31.5729C25.3589 32.8595 25.0114 34.7755 24.8209 35.831L24.4739 37.7497L26.1137 37.5966C27.0156 37.5124 28.4919 37.254 29.394 37.0227C31.3062 36.5325 36.6873 34.3204 36.5587 34.0777C34.5223 30.2383 34.0235 28.4961 34.0235 25.2244C34.0235 20.4587 36.2637 16.2827 40.3606 13.4117C43.4104 11.2745 45.8972 10.437 51.0671 9.80624C51.5376 9.7488 51.5789 9.63678 51.3923 8.92567C50.9969 7.42105 49.5739 5.64768 48.1967 4.94306C47.1495 4.40739 46.4852 4.27276 44.6879 4.23169C43.4684 4.20362 42.0176 4.29251 41.4642 4.42896ZM47.3351 11.4289C43.3377 12.4885 39.3803 15.3545 37.9991 18.1902C36.1062 22.0763 36.2094 26.709 38.2668 30.2198C39.4364 32.2154 39.498 32.2206 41.6056 30.499C47.0996 26.0106 51.3925 18.3752 51.7426 12.4695L51.8274 11.04L50.5278 10.9836C49.8131 10.9524 48.3763 11.1528 47.3351 11.4289ZM23.1278 33.9337C23.1403 34.2365 23.2019 34.2981 23.2848 34.0909C23.3599 33.9033 23.3506 33.679 23.2643 33.5927C23.178 33.5064 23.1167 33.6597 23.1278 33.9337ZM35.1931 35.7395C32.07 37.2522 28.929 38.1063 24.9506 38.5247C24.3598 38.5869 24.2922 38.7784 23.7358 41.9693C22.4292 49.4623 20.5607 56.0349 18.6582 59.8285L17.6528 61.8335L18.7309 62.1238C19.7973 62.4107 22.5685 63.4272 29.3121 66.0048C31.2238 66.7354 32.8337 67.2874 32.8893 67.2318C32.9452 67.1762 32.8227 66.7286 32.6177 66.2374C32.0521 64.884 31.637 61.2692 31.8374 59.4462C32.5236 53.2115 36.5667 48.6139 42.7555 47.0311C48.9351 45.4508 55.89 47.9875 58.0927 52.6256C58.8202 54.1575 58.8447 54.4081 58.3176 54.9352C57.699 55.554 57.2254 55.1704 56.892 53.7807C56.7238 53.0794 56.1858 51.9811 55.6964 51.3401C51.5836 45.954 41.6428 46.1991 36.4425 51.815C32.9082 55.6315 31.9068 60.924 33.7075 66.2709L34.1888 67.7004L36.3804 68.4235C41.4658 70.1012 47.0861 70.6881 50.7877 69.9281C54.2778 69.2113 57.3426 67.0579 59.0656 64.1118C59.7567 62.9303 60.1796 62.4518 60.4434 62.5532C60.8987 62.7278 60.788 63.073 59.6769 64.9402C56.7092 69.9278 50.7212 73.0221 44.0301 73.0257C42.3742 73.0265 38.764 72.5386 37.1424 72.0947C36.5293 71.9268 36.5439 71.9713 37.4024 72.8841C39.912 75.5526 44.4025 78.0266 48.5785 79.0416C52.2037 79.9227 57.786 79.8686 61.4024 78.9176C67.0045 77.4442 71.2541 74.2086 73.5174 69.6937C75.0451 66.6462 75.6065 61.1658 74.7078 58.0744C73.4137 53.6224 70.1814 50.1006 65.0981 47.6042C63.9462 47.0383 59.3021 45.3417 54.7784 43.8337C50.0574 42.2602 45.5178 40.5741 44.1221 39.8763C41.4232 38.5266 38.4615 36.4566 37.813 35.4669C37.5807 35.1121 37.3054 34.8301 37.2014 34.8403C37.0975 34.8501 36.1938 35.2551 35.1931 35.7395ZM6.47306 61.2391C2.15388 62.0534 -0.174396 65.2089 1.60053 67.8428C2.54166 69.2393 3.72218 69.7846 5.72868 69.7495C8.8424 69.695 11.4501 67.8603 13.5811 64.2241C14.1149 63.3129 14.4991 62.5144 14.4346 62.45C14.3702 62.3853 13.4592 62.1118 12.4102 61.842C10.3915 61.3227 7.55637 61.0348 6.47306 61.2391Z" fill="url(#paint3_linear_41_9)"/>
<defs>
<linearGradient id="paint0_linear_41_9" x1="163.234" y1="21.4468" x2="159.304" y2="43.0556" gradientUnits="userSpaceOnUse">
<stop stop-color="#6F8D6F"/>
<stop offset="1" stop-color="#1F271F"/>
</linearGradient>
<linearGradient id="paint1_linear_41_9" x1="205.492" y1="64.462" x2="199.2" y2="98.3741" gradientUnits="userSpaceOnUse">
<stop stop-color="#6F8D6F"/>
<stop offset="1" stop-color="#1F271F"/>
</linearGradient>
<linearGradient id="paint2_linear_41_9" x1="204.921" y1="95.3019" x2="204.488" y2="104.317" gradientUnits="userSpaceOnUse">
<stop stop-color="#6F8D6F"/>
<stop offset="1" stop-color="#1F271F"/>
</linearGradient>
<linearGradient id="paint3_linear_41_9" x1="36.53" y1="40.2683" x2="39.2634" y2="102.978" gradientUnits="userSpaceOnUse">
<stop stop-color="#6F8D6F"/>
<stop offset="1" stop-color="#1F271F"/>
</linearGradient>
</defs>
</svg>
